<svg width="31" height="31" viewBox="0 0 31 31" fill="none" xmlns="http://www.w3.org/2000/svg">
<g clip-path="url(#clip0_22_27)">
<path d="M11.0308 13.8595C10.9017 13.4591 10.7854 13.0716 10.6562 12.6712C10.5271 12.2708 10.4108 11.8962 10.3075 11.5216C10.2042 11.16 10.1137 10.8241 10.0233 10.5141H9.9975C9.88125 11.0695 9.73917 11.625 9.55833 12.1804C9.36458 12.8004 9.17083 13.4462 8.96417 14.092C8.79625 14.7508 8.58958 15.3579 8.39583 15.9004H11.6767C11.5992 15.6291 11.4958 15.3062 11.3796 14.9704C11.2633 14.6216 11.1471 14.247 11.0308 13.8595ZM22.1133 13.4849C21.4029 13.4462 20.7312 13.8208 20.3954 14.4666C20.2404 14.7637 20.15 15.0737 20.1112 15.3966H22.8354C23.1712 15.3966 23.4166 15.3966 23.5716 15.3837C23.675 15.3708 23.7783 15.345 23.8687 15.2804V15.1512C23.8637 14.9263 23.8142 14.7046 23.7231 14.4989C23.632 14.2931 23.5011 14.1075 23.3379 13.9526C23.1748 13.7977 22.9826 13.6766 22.7724 13.5964C22.5622 13.5161 22.3382 13.4782 22.1133 13.4849ZM25.5104 0.387451H5.48958C2.45417 0.387451 0 2.84162 0 5.87703V25.1229C0 28.1583 2.45417 30.6125 5.48958 30.6125H25.5104C28.5458 30.6125 31 28.1583 31 25.1229V5.87703C31 2.84162 28.5458 0.387451 25.5104 0.387451ZM16.4171 21.7142H13.7175C13.6271 21.7271 13.5367 21.6612 13.5108 21.5721L12.4517 18.4721H7.64667L6.665 21.5204C6.63917 21.6367 6.53583 21.7142 6.41958 21.7012H3.99125C3.84917 21.7012 3.81042 21.6237 3.84917 21.4687L8.00833 9.54537C8.04708 9.4162 8.08583 9.29995 8.1375 9.14495C8.18917 8.8737 8.215 8.58953 8.215 8.30537C8.20208 8.24078 8.25375 8.1762 8.31833 8.16328H11.6637C11.7542 8.16328 11.8187 8.20203 11.8317 8.26662L16.5463 21.5062C16.585 21.6483 16.5475 21.7142 16.4171 21.7142ZM26.558 16.5591C26.5308 16.8032 26.5179 16.9854 26.505 17.1016C26.4921 17.192 26.4159 17.2695 26.3242 17.2695C26.2467 17.2695 26.1046 17.2825 25.8979 17.2967C25.6925 17.3225 25.4458 17.3341 25.15 17.3341C24.853 17.3341 24.5417 17.2825 24.2071 17.2825H20.1125C20.1629 17.6829 20.2934 18.0833 20.513 18.432C20.7415 18.7797 21.0697 19.0502 21.4546 19.2083C21.9713 19.4279 22.5409 19.5442 23.1092 19.5312C23.5613 19.517 24.0121 19.4796 24.4512 19.3892C24.8458 19.3388 25.2325 19.239 25.6021 19.0921C25.6667 19.0417 25.7055 19.0662 25.7055 19.1954V21.173C25.7055 21.2233 25.6925 21.2763 25.6783 21.3267C25.6551 21.3626 25.6248 21.3934 25.5892 21.4171C25.1759 21.5979 24.7496 21.7271 24.2975 21.8046C23.6892 21.9208 23.0834 21.9725 22.4634 21.9596C21.4804 21.9596 20.655 21.8046 19.9834 21.5075C19.3515 21.2323 18.7934 20.8119 18.3546 20.2804C17.9425 19.7767 17.6442 19.2083 17.4633 18.5883C17.2826 17.9756 17.1917 17.34 17.1934 16.7012C17.1934 16.005 17.2967 15.3191 17.5163 14.6475C17.723 14.0016 18.0459 13.4075 18.485 12.8779C18.9113 12.3612 19.4396 11.9479 20.0467 11.6508C20.655 11.3537 21.3771 11.2504 22.2038 11.2504C22.8925 11.2343 23.5762 11.371 24.2058 11.6508C24.7354 11.8833 25.2004 12.232 25.5621 12.6841C25.8979 13.1233 26.1692 13.6141 26.3384 14.1566C26.505 14.6733 26.5825 15.2029 26.5825 15.7325C26.5825 16.0425 26.5696 16.3137 26.558 16.5591Z" fill="url(#paint0_linear_22_27)"/>
</g>
<defs>
<linearGradient id="paint0_linear_22_27" x1="15.5" y1="0.387451" x2="15.5" y2="30.6125" gradientUnits="userSpaceOnUse">
<stop stop-color="#666666"/>
<stop offset="1" stop-color="white"/>
</linearGradient>
<clipPath id="clip0_22_27">
<rect width="31" height="31" fill="white"/>
</clipPath>
</defs>
</svg>
