<svg width="79" height="87" viewBox="0 0 79 87" fill="none" xmlns="http://www.w3.org/2000/svg">
<path d="M4 85.5874V80.2306M13.6609 85.5874V80.2306M4 80.2306V75.8738C4 75.3215 4.44772 74.8738 5 74.8738H12.6609C13.2132 74.8738 13.6609 75.3215 13.6609 75.8738V80.2306M4 80.2306H13.6609" stroke="white" stroke-opacity="0.87" stroke-width="2"/>
<path d="M20.0396 85.2159V80.726M20.0396 80.726V75.8738C20.0396 75.3215 20.4873 74.8738 21.0396 74.8738H28.5146C29.0669 74.8738 29.5146 75.3215 29.5146 75.8738V79.726C29.5146 80.2783 29.0669 80.726 28.5146 80.726H26.0466M20.0396 80.726H24.7771H26.0466M26.0466 80.726L29.5146 85.2159" stroke="white" stroke-opacity="0.87" stroke-width="2"/>
<path d="M40.3212 85.9999V74.2644M46.2044 74.9046H34.438" stroke="white" stroke-opacity="0.87" stroke-width="2"/>
<path d="M60.8506 74.812H51.0039V79.6424M60.8506 84.4729H51.0039V79.6424M51.0039 79.6424H59.0856" stroke="white" stroke-opacity="0.87" stroke-width="2"/>
<g clip-path="url(#clip0_48_136)">
<path d="M65 73.2306L76.6667 87M77 73L65.2333 87" stroke="white" stroke-opacity="0.87" stroke-width="2"/>
</g>
<path d="M18.5414 44.1475C36.9493 46.1878 61.7994 58.7739 70 63.845C63.5166 47.7998 47.4502 20.1733 39.9431 7C29.3081 25.4177 13.2273 53.3832 10 65C20.8246 59.1417 51.9488 42.3119 61.4123 43.0861" stroke="white" stroke-opacity="0.87" stroke-width="5"/>
<defs>
<clipPath id="clip0_48_136">
<rect width="11.8284" height="11.8284" fill="white" transform="translate(64.752 73.759)"/>
</clipPath>
</defs>
</svg>
