<svg width="106" height="99" viewBox="0 0 106 99" fill="none" xmlns="http://www.w3.org/2000/svg">
<g clip-path="url(#clip0_48_72)">
<path d="M53.7011 1.16479H53.4636C32.9429 1.16479 16.3076 17.8514 16.3076 38.4354C16.3076 59.0194 32.9429 75.706 53.4636 75.706H53.7011C74.2218 75.706 90.8571 59.0194 90.8571 38.4354C90.8571 17.8514 74.2218 1.16479 53.7011 1.16479Z" stroke="white" stroke-width="1.5"/>
<path d="M28.7783 58.6311H31.1765" stroke="white" stroke-width="1.5"/>
<path d="M41.4888 66.801H43.887" stroke="white" stroke-width="1.5"/>
<path d="M63.3123 66.801H65.7104" stroke="white" stroke-width="1.5"/>
<path d="M75.7827 58.6311H78.1809" stroke="white" stroke-width="1.5"/>
<path d="M33.335 58.6311H38.611" stroke="white" stroke-width="1.5"/>
<path d="M50.6018 69.6846H56.3575" stroke="white" stroke-width="1.5"/>
<path d="M34.2942 61.2742H42.6879" stroke="white" stroke-width="1.5"/>
<path d="M64.2715 61.2742H72.6651" stroke="white" stroke-width="1.5"/>
<path d="M45.8054 61.2742H61.1538" stroke="white" stroke-width="1.5"/>
<path d="M45.8054 66.801H61.1538" stroke="white" stroke-width="1.5"/>
<path d="M68.5881 58.6311H73.8642" stroke="white" stroke-width="1.5"/>
<path d="M41.009 58.6311H65.9502" stroke="white" stroke-width="1.5"/>
<path d="M37.8914 64.1577H69.3076" stroke="white" stroke-width="1.5"/>
<path d="M19.665 54.0654H87.1741" stroke="white" stroke-width="1.5"/>
<path d="M73.6245 54.0655L73.9739 48.6589M73.9739 48.6589L80.1459 45.415M73.9739 48.6589L74.4164 41.8106M75.7829 20.665L75.3171 27.8737M75.7829 20.665H62.4729C63.0724 19.7038 64.7752 17.6854 66.7896 17.3009C68.8041 16.9165 72.3455 17.1407 73.8643 17.3009M75.7829 20.665H76.9819M75.3171 27.8737L74.8744 34.722M75.3171 27.8737L78.9149 26.432M73.8643 17.3009C75.0634 18.2621 77.3657 20.2805 76.9819 20.665M73.8643 17.3009L66.5498 9.85192C68.7974 9.45143 73.6974 9.65969 75.3171 13.6966M76.9819 20.665H77.2218M78.5408 20.665L78.9149 26.432M78.5408 20.665H77.2218M78.5408 20.665H86.215M78.9149 26.432L79.2888 32.199M77.2218 20.665V16.4599M77.2218 20.665L82.4978 14.7778M80.6991 53.9453L80.1459 45.415M80.1459 45.415L79.7329 39.0473M74.4164 41.8106L79.7329 39.0473M74.4164 41.8106L74.8744 34.722M79.7329 39.0473L79.2888 32.199M79.2888 32.199L74.8744 34.722M75.3171 13.6966H78.5408M75.3171 13.6966L77.2218 16.4599M78.5408 13.6966L80.3394 12.1346M78.5408 13.6966L77.2218 16.4599M80.3394 17.3009H84.5362" stroke="white" stroke-width="1.5"/>
<path d="M33.6945 53.9672L32.975 45.3167M32.975 45.3167L26.9796 48.6589M32.975 45.3167L32.4954 38.949M31.5361 20.5666L31.8959 26.432M31.5361 20.5666H44.8461C44.2465 19.6054 42.5438 17.587 40.5293 17.2025C38.5149 16.8181 34.9735 17.0423 33.4547 17.2025M31.5361 20.5666H30.337M31.8959 26.432L32.1357 32.4392M31.8959 26.432L28.2986 27.7754M33.4547 17.2025C32.2556 18.1637 29.9533 20.1821 30.337 20.5666M33.4547 17.2025L40.7692 9.75353C38.5216 9.35304 33.6216 9.5613 32.0019 13.5982M30.337 20.5666H30.0972M28.7782 20.5666L28.2986 27.7754M28.7782 20.5666H30.0972M28.7782 20.5666H21.104M28.2986 27.7754L27.9388 34.9623M30.0972 20.5666V16.3615M30.0972 20.5666L24.8212 14.6795M26.6198 53.847L26.9796 48.6589M26.9796 48.6589L27.4592 41.8106M32.4954 38.949L27.4592 41.8106M32.4954 38.949L32.1357 32.4392M27.4592 41.8106L27.9388 34.9623M27.9388 34.9623L32.1357 32.4392M32.0019 13.5982H28.7782M32.0019 13.5982L30.0972 16.3615M28.7782 13.5982L26.9796 12.0362M28.7782 13.5982L30.0972 16.3615M26.9796 17.2025H22.7827" stroke="white" stroke-width="1.5"/>
<path d="M83.6969 53.8251L83.9607 49.8603M83.9607 49.8603L88.1355 47.8178M83.9607 49.8603L84.4284 42.8318M84.896 35.8033L84.4284 42.8318M84.896 35.8033H79.3802M84.896 35.8033H86.1551M84.4284 42.8318L87.7242 40.9695M86.1551 35.8033H87.4141M86.1551 35.8033V31.3579M86.1551 35.8033L82.8276 32.4392M86.1551 35.8033L90.292 31.5982M87.4141 35.8033L87.7242 40.9695M87.4141 35.8033H90.6517M87.7242 40.9695L88.1355 47.8178M88.3734 51.7827L88.1355 47.8178M86.1551 31.3579C84.7761 29.3555 81.4426 25.3266 79.1404 25.2305M86.1551 31.3579C86.8146 30.2365 88.3494 27.8977 89.2128 27.5132M82.8276 32.4392L79.1404 28.8348M82.8276 32.4392H79.3802" stroke="white" stroke-width="1.5"/>
<path d="M23.5024 53.8251L23.2386 49.8603M23.2386 49.8603L19.0639 47.8178M23.2386 49.8603L22.7709 42.8318M22.3033 35.8033L22.7709 42.8318M22.3033 35.8033H27.8191M22.3033 35.8033H21.0442M22.7709 42.8318L19.475 40.9695M21.0442 35.8033H19.7852M21.0442 35.8033V31.3579M21.0442 35.8033L24.3717 32.4392M21.0442 35.8033L16.9073 31.5982M19.7852 35.8033L19.475 40.9695M19.7852 35.8033H16.5476M19.475 40.9695L19.0639 47.8178M18.8259 51.7827L19.0639 47.8178M21.0442 31.3579C22.4232 29.3555 25.7567 25.3266 28.0589 25.2305M21.0442 31.3579C20.3847 30.2365 18.8499 27.8977 17.9865 27.5132M24.3717 32.4392L28.0589 28.8348M24.3717 32.4392H27.8191" stroke="white" stroke-width="1.5"/>
<path d="M52.1607 13.6965H49.5227M49.5227 13.6965H37.0521M49.5227 13.6965L46.9128 9.51243C46.6691 9.12174 46.2537 8.87129 45.7952 8.83846L43.8426 8.69873C43.415 8.66812 43.0234 8.44813 42.7742 8.09863L41.0974 5.74644C40.8866 5.45067 40.5719 5.2456 40.2165 5.17231L36.6924 4.44531" stroke="white" stroke-width="1.5"/>
<path d="M54.9185 13.8166H57.5565M57.5565 13.8166H70.0271M57.5565 13.8166L60.1664 9.63255C60.4101 9.24186 60.8254 8.9914 61.284 8.95858L63.2366 8.81885C63.6642 8.78824 64.0558 8.56825 64.305 8.21875L65.9818 5.86656C66.1926 5.57078 66.5072 5.36572 66.8626 5.29243L70.3868 4.56543" stroke="white" stroke-width="1.5"/>
<path d="M46.5249 13.937C46.5249 16.3399 49.4027 19.8241 53.5996 19.8241C57.4367 19.8241 60.5543 17.1809 60.4344 13.937" stroke="white" stroke-width="1.5"/>
<path d="M47.0046 10.0922C48.0193 7.74421 50.5489 6.36768 53.7196 6.36768C56.8902 6.36768 57.6651 7.11945 60.0748 10.3325" stroke="white" stroke-width="1.5"/>
<path d="M39.2104 53.8253V25.5911M48.8031 50.7015H37.052M48.8031 48.7792H47.2443M47.2443 48.7792H37.052M47.2443 48.7792V53.8253M69.9072 25.5911H67.8687M67.8687 25.5911H37.052M67.8687 25.5911V53.8253M69.9072 36.7646H37.052M69.9072 38.5668H37.052M58.0362 48.7792H69.9072M58.0362 50.7015H69.9072M59.7149 53.8253V48.7792M58.5158 41.3301H64.871V47.0971H58.5158M58.5158 41.6906V47.4576M55.8778 53.8253V41.3301H50.9615V53.8253M48.3235 41.3301V47.0971H41.9683V41.3301H48.3235ZM45.6855 28.2343V34.2415H41.9683V28.2343H45.6855ZM52.0407 28.1141V34.1214H48.3235V28.1141H52.0407ZM58.5158 28.2343V34.2415H54.7986V28.2343H58.5158ZM65.2307 28.2343V34.2415H61.5135V28.2343H65.2307Z" stroke="white" stroke-width="1.5"/>
<mask id="mask0_48_72" style="mask-type:luminance" maskUnits="userSpaceOnUse" x="0" y="87" width="106" height="12">
<path d="M106 87.4661H0V99H106V87.4661Z" fill="white"/>
</mask>
<g mask="url(#mask0_48_72)">
<path d="M30.0972 87.9465L35.8528 98.9999L41.7284 87.9465" stroke="white"/>
<path d="M49.6426 88.4272C52.8783 88.4272 55.3983 90.74 55.3983 93.4734C55.3983 96.2067 52.8783 98.5195 49.6426 98.5195C46.407 98.5195 43.887 96.2067 43.887 93.4734C43.887 90.74 46.407 88.4272 49.6426 88.4272Z" stroke="white"/>
<path d="M57.1968 87.7063L62.4728 94.4345M62.4728 94.4345L67.7488 87.7063M62.4728 94.4345V99" stroke="white"/>
<path d="M105.88 88.3071H97.2466V93.5935M97.2466 93.5935V98.7598H106.12M97.2466 93.5935H105.041" stroke="white"/>
<path d="M0 99.7207L2.27828 95.5065M2.27828 95.5065L6.23529 88.1868L10.1923 95.5065M2.27828 95.5065H10.1923M12.4706 99.7207L10.1923 95.5065M13.5498 88.4271H23.1425L13.6697 98.7596H24.2217" stroke="white"/>
<path d="M69.0679 99.74L71.3462 95.5256M71.3462 95.5256L75.3032 88.2061L79.2602 95.5256M71.3462 95.5256H79.2602M81.5385 99.74L79.2602 95.5256M93.0498 89.4075C91.8106 88.4862 87.5339 87.2257 84.776 89.6286C84.0165 90.7899 83.0973 92.8725 83.3371 94.3143C83.5769 95.756 85.2317 98.0628 88.9728 98.6395C90.0921 98.5131 92.81 98.3512 93.7692 97.1978V93.5934H88.9728" stroke="white"/>
</g>
</g>
<defs>
<clipPath id="clip0_48_72">
<rect width="106" height="99" fill="white"/>
</clipPath>
</defs>
</svg>
