<svg width="31" height="30" viewBox="0 0 31 30" fill="none" xmlns="http://www.w3.org/2000/svg">
<rect width="31" height="30" rx="6" fill="#8F1F00"/>
<path d="M13.125 9C13.125 10.6568 11.7071 12 9.95833 12C8.20954 12 6.79167 10.6568 6.79167 9C6.79167 7.34325 8.20954 6 9.95833 6C11.7071 6 13.125 7.34325 13.125 9ZM17.0833 6C15.3345 6 13.9167 7.34325 13.9167 9C13.9167 10.6568 15.3345 12 17.0833 12C18.8321 12 20.25 10.6568 20.25 9C20.25 7.34325 18.8321 6 17.0833 6ZM21.0417 16.5V21C21.0417 22.6568 19.6238 24 17.875 24H9.16667C7.41787 24 6 22.6568 6 21V16.5C6 14.8432 7.41787 13.5 9.16667 13.5H17.875C19.6238 13.5 21.0417 14.8432 21.0417 16.5ZM23.2306 14.9145L22.625 15.4883V21.3007L23.2306 21.8745C23.8837 22.4933 25 22.0552 25 21.18V15.6082C25 14.7337 23.8837 14.2965 23.2306 14.9145Z" fill="white"/>
</svg>
