<svg width="30" height="30" viewBox="0 0 30 30" fill="none" xmlns="http://www.w3.org/2000/svg">
<rect width="30.0003" height="30.0001" rx="6" fill="#8F1F00"/>
<path d="M17.991 14.7946C18.1095 16.1296 17.061 17.2501 15.75 17.2501H12.7665C12.2483 17.2501 11.8807 16.7506 12.0352 16.2563C12.4117 15.0496 13.4872 13.1326 15.2152 12.8003C16.5315 12.5468 17.8725 13.4596 17.991 14.7946ZM18.0165 12.0481C18.5715 12.4666 18.9757 13.0298 19.2247 13.6538L23.469 9.09009C24.1762 8.38359 24.1778 7.23759 23.4713 6.53034C22.7655 5.82384 21.621 5.82309 20.9145 6.52884C20.8905 6.55284 16.7347 11.4136 16.7347 11.4136C17.1915 11.5448 17.6287 11.7556 18.0165 12.0481ZM18.5167 17.5321C17.8087 18.3061 16.8 18.7508 15.7508 18.7508H12.7672C12.0487 18.7508 11.3662 18.4058 10.941 17.8283C10.5157 17.2508 10.3898 16.4963 10.6035 15.8108C11.1502 14.0618 12.5693 11.8891 14.7773 11.3746L18.0682 7.50159H9.75C7.68225 7.50009 6 9.18234 6 11.2501V17.2501C6 19.3178 7.68225 21.0001 9.75 21.0001H14.25V22.5001H12C11.586 22.5001 11.25 22.8353 11.25 23.2501C11.25 23.6648 11.586 24.0001 12 24.0001H18C18.4147 24.0001 18.75 23.6648 18.75 23.2501C18.75 22.8353 18.4147 22.5001 18 22.5001H15.75V21.0001H20.25C22.3177 21.0001 24 19.3178 24 17.2501V10.7138L19.4318 15.6233C19.3118 16.3283 19.0057 16.9958 18.5167 17.5306V17.5321Z" fill="white"/>
</svg>
