<svg width="31" height="31" viewBox="0 0 31 31" fill="none" xmlns="http://www.w3.org/2000/svg">
<g clip-path="url(#clip0_22_21)">
<path d="M20.4755 11.6005H14.5493V0H20.4755C23.6737 0 26.2751 2.60142 26.2751 5.79958C26.2751 8.99775 23.6737 11.6005 20.4755 11.6005ZM16.4494 9.70042H20.4755C22.6261 9.70042 24.3751 7.95021 24.3751 5.80088C24.3751 3.65154 22.6248 1.90133 20.4755 1.90133H16.4494V9.70042ZM16.4494 11.6005H10.5245C7.32634 11.6005 4.72492 8.99904 4.72492 5.80088C4.72492 2.60271 7.32634 0 10.5245 0H16.4507V11.6005H16.4494ZM10.5245 1.90004C8.37388 1.90004 6.62497 3.65025 6.62497 5.79958C6.62497 7.94892 8.37388 9.70042 10.5245 9.70042H14.5506V1.90004H10.5245ZM16.4494 21.2996H10.5245C7.32634 21.2996 4.72492 18.6982 4.72492 15.5C4.72492 12.3018 7.32634 9.70042 10.5245 9.70042H16.4507V21.2996H16.4494ZM10.5245 11.6005C8.37388 11.6005 6.62497 13.3507 6.62497 15.5C6.62497 17.6493 8.37517 19.3995 10.5245 19.3995H14.5506V11.6005H10.5245ZM10.5555 31C7.34055 31 4.72363 28.3986 4.72363 25.2004C4.72363 22.0022 7.32505 19.4008 10.5232 19.4008H16.4494V25.1371C16.4494 28.3702 13.8053 31 10.5555 31ZM10.5245 21.2996C9.4907 21.3009 8.49964 21.7122 7.76863 22.4432C7.03762 23.1743 6.62633 24.1653 6.62497 25.1991C6.62497 27.3498 8.38809 29.0987 10.5568 29.0987C12.7591 29.0987 14.5519 27.3213 14.5519 25.1358V21.2996H10.5245ZM20.4755 21.2996H20.3489C17.1508 21.2996 14.5493 18.6982 14.5493 15.5C14.5493 12.3018 17.1508 9.70042 20.3489 9.70042H20.4755C23.6737 9.70042 26.2751 12.3018 26.2751 15.5C26.2751 18.6982 23.6737 21.2996 20.4755 21.2996ZM20.3502 11.6005C18.1996 11.6005 16.4507 13.3507 16.4507 15.5C16.4507 17.6493 18.2009 19.3995 20.3502 19.3995H20.4768C22.6274 19.3995 24.3763 17.6493 24.3763 15.5C24.3763 13.3507 22.6248 11.6005 20.4755 11.6005H20.3502Z" fill="url(#paint0_linear_22_21)"/>
</g>
<defs>
<linearGradient id="paint0_linear_22_21" x1="15.4994" y1="0" x2="15.4994" y2="31" gradientUnits="userSpaceOnUse">
<stop stop-color="#666666"/>
<stop offset="1" stop-color="white"/>
</linearGradient>
<clipPath id="clip0_22_21">
<rect width="31" height="31" fill="white"/>
</clipPath>
</defs>
</svg>
