<svg width="30" height="30" viewBox="0 0 30 30" fill="none" xmlns="http://www.w3.org/2000/svg">
<rect width="30" height="30" rx="6" fill="#8F1F00"/>
<path d="M20.25 6H9.75C8.7558 6.00119 7.80267 6.39666 7.09966 7.09966C6.39666 7.80267 6.00119 8.7558 6 9.75V20.25C6.00119 21.2442 6.39666 22.1973 7.09966 22.9003C7.80267 23.6033 8.7558 23.9988 9.75 24H20.25C21.2442 23.9988 22.1973 23.6033 22.9003 22.9003C23.6033 22.1973 23.9988 21.2442 24 20.25V9.75C23.9988 8.7558 23.6033 7.80267 22.9003 7.09966C22.1973 6.39666 21.2442 6.00119 20.25 6ZM21 14.25H22.5V15.75H21V14.25ZM21 12.75V11.25H22.5V12.75H21ZM9 15.75H7.5V14.25H9V15.75ZM10.4617 15.75V14.25H19.4617V15.75H10.4617ZM9 12.75H7.5V11.25H9V12.75ZM7.5 17.25H9V18.75H7.5V17.25ZM21 17.25H22.5V18.75H21V17.25ZM22.5 9.75H21V7.638C21.4372 7.79256 21.8159 8.07842 22.0844 8.45648C22.3529 8.83453 22.4981 9.2863 22.5 9.75ZM9 7.638V9.75H7.5C7.50192 9.2863 7.64706 8.83453 7.91557 8.45648C8.18407 8.07842 8.56282 7.79256 9 7.638ZM7.5 20.25H9V22.362C8.56282 22.2074 8.18407 21.9216 7.91557 21.5435C7.64706 21.1655 7.50192 20.7137 7.5 20.25ZM21 22.362V20.25H22.5C22.4981 20.7137 22.3529 21.1655 22.0844 21.5435C21.8159 21.9216 21.4372 22.2074 21 22.362Z" fill="#FFF9F9"/>
</svg>
