<svg width="30" height="30" viewBox="0 0 30 30" fill="none" xmlns="http://www.w3.org/2000/svg">
<rect width="30" height="30" rx="6" fill="#8F1F00"/>
<path d="M15 6C10.0372 6 6 10.0372 6 15C6 19.9628 10.0372 24 15 24C19.9628 24 24 19.9628 24 15C24 10.0372 19.9628 6 15 6ZM13.5 11.25C13.5 10.4212 14.1712 9.75 15 9.75C15.8288 9.75 16.5 10.4212 16.5 11.25V15C16.5 15.8288 15.8288 16.5 15 16.5C14.1712 16.5 13.5 15.8288 13.5 15V11.25ZM15.75 19.437V20.25C15.75 20.664 15.4147 21 15 21C14.5853 21 14.25 20.664 14.25 20.25V19.437C12.1245 19.0793 10.5 17.226 10.5 15C10.5 14.586 10.8353 14.25 11.25 14.25C11.6647 14.25 12 14.586 12 15C12 16.6545 13.3455 18 15 18C16.6545 18 18 16.6545 18 15C18 14.586 18.3353 14.25 18.75 14.25C19.1647 14.25 19.5 14.586 19.5 15C19.5 17.226 17.8755 19.0793 15.75 19.437Z" fill="white"/>
</svg>
