<svg width="101" height="30" viewBox="0 0 101 30" fill="none" xmlns="http://www.w3.org/2000/svg">
<g clip-path="url(#clip0_40_2)">
<path d="M1.52541 14.1995L13.6651 0.932931C13.8294 0.753446 14.055 0.652176 14.2907 0.652176H14.378H22.7835C23.2652 0.652176 23.6557 1.06692 23.6557 1.57854V8.16547C23.6557 8.47041 23.5144 8.75582 23.2779 8.92867L15.4669 14.6361C14.9513 15.013 14.9661 15.8269 15.4951 16.1822L23.2497 21.391C23.5025 21.5608 23.6557 21.8563 23.6557 22.1739V27.7693C23.6557 28.2809 23.2652 28.6957 22.7835 28.6957H13.8766C13.6396 28.6957 13.4128 28.5933 13.2484 28.4121L1.52282 15.4878C1.19631 15.128 1.19745 14.5579 1.52541 14.1995Z" stroke="#1C1C1C" stroke-width="0.6"/>
<path d="M2.80916 14.1843L13.8451 2.23685C14.3947 1.64185 15.3443 2.05687 15.3443 2.89206V27.1079C15.3443 27.9491 14.383 28.3613 13.837 27.7543L2.80108 15.4858C2.47303 15.1212 2.47661 14.5443 2.80916 14.1843Z" fill="#1C1C1C"/>
<path d="M25.5737 0.652176L38.1078 14.2819C38.4438 14.6472 38.445 15.2269 38.1106 15.5938L25.5737 29.3478" stroke="#FF410D" stroke-width="0.6" stroke-linecap="round"/>
</g>
<path d="M49.5929 22L44.7765 8.9043H46.5167L49.2941 16.7002C49.4523 17.1396 49.6486 17.7285 49.8829 18.4668C50.1232 19.2051 50.4073 20.1191 50.7355 21.209H50.3839C50.7062 20.1016 50.9845 19.1846 51.2189 18.458C51.4532 17.7256 51.6466 17.1396 51.7989 16.7002L54.5148 8.9043H56.255L51.4913 22H49.5929ZM60.4224 22V16.6299L55.606 8.9043H57.5132L60.1148 13.1318C60.4019 13.5947 60.6597 14.043 60.8882 14.4766C61.1226 14.9043 61.3599 15.4199 61.6002 16.0234H60.9322C61.1724 15.4082 61.4068 14.8838 61.6353 14.4502C61.8697 14.0166 62.1216 13.5771 62.3912 13.1318L64.9839 8.9043H66.8912L62.0748 16.6299V22H60.4224ZM67.3672 22V8.9043H69.3008L74.6445 17.3154C74.7793 17.5205 74.9434 17.79 75.1367 18.124C75.3301 18.4521 75.5381 18.8213 75.7607 19.2314C75.9893 19.6416 76.2119 20.0752 76.4287 20.5322L76.209 20.6025C76.168 20.1396 76.1357 19.6826 76.1123 19.2314C76.0947 18.7803 76.083 18.3643 76.0771 17.9834C76.0713 17.5967 76.0684 17.2803 76.0684 17.0342V8.9043H77.7119V22H75.7607L71.0059 14.5205C70.8066 14.2041 70.5957 13.8643 70.373 13.501C70.1562 13.1377 69.9043 12.707 69.6172 12.209C69.3359 11.7109 68.9961 11.1104 68.5977 10.4072L68.8789 10.3105C68.9082 10.9668 68.9316 11.5703 68.9492 12.1211C68.9727 12.666 68.9902 13.1406 69.002 13.5449C69.0137 13.9492 69.0195 14.2686 69.0195 14.5029V22H67.3672ZM78.2407 22L83.3559 14.6875V15.9092L78.5307 8.9043H80.4379L82.3364 11.6904C82.6 12.0713 82.8198 12.4023 82.9955 12.6836C83.1772 12.9648 83.3471 13.2432 83.5053 13.5186C83.6635 13.7881 83.8364 14.1016 84.0239 14.459H83.7426C83.9301 14.1074 84.103 13.7969 84.2612 13.5273C84.4194 13.252 84.5922 12.9736 84.7797 12.6924C84.9672 12.4053 85.1899 12.0713 85.4477 11.6904L87.3813 8.9043H89.2534L84.4282 15.8389V14.626L89.4907 22H87.5922L85.2895 18.6689C85.061 18.3232 84.8588 18.0215 84.683 17.7637C84.5131 17.5 84.352 17.2393 84.1996 16.9814C84.0473 16.7178 83.8803 16.4131 83.6987 16.0674H84.059C83.8832 16.3955 83.7163 16.6914 83.558 16.9551C83.3998 17.2188 83.2329 17.4824 83.0571 17.7461C82.8813 18.0098 82.6733 18.3174 82.433 18.6689L80.1127 22H78.2407ZM88.9296 22L94.0448 14.6875V15.9092L89.2196 8.9043H91.1268L93.0253 11.6904C93.2889 12.0713 93.5087 12.4023 93.6845 12.6836C93.8661 12.9648 94.036 13.2432 94.1942 13.5186C94.3524 13.7881 94.5253 14.1016 94.7128 14.459H94.4315C94.619 14.1074 94.7919 13.7969 94.9501 13.5273C95.1083 13.252 95.2811 12.9736 95.4686 12.6924C95.6561 12.4053 95.8788 12.0713 96.1366 11.6904L98.0702 8.9043H99.9423L95.1171 15.8389V14.626L100.18 22H98.2811L95.9784 18.6689C95.7499 18.3232 95.5477 18.0215 95.372 17.7637C95.202 17.5 95.0409 17.2393 94.8886 16.9814C94.7362 16.7178 94.5692 16.4131 94.3876 16.0674H94.7479C94.5721 16.3955 94.4052 16.6914 94.247 16.9551C94.0887 17.2188 93.9218 17.4824 93.746 17.7461C93.5702 18.0098 93.3622 18.3174 93.122 18.6689L90.8016 22H88.9296Z" fill="#1C1C1C"/>
<defs>
<clipPath id="clip0_40_2">
<rect width="39" height="30" fill="white"/>
</clipPath>
</defs>
</svg>
