<svg width="31" height="31" viewBox="0 0 31 31" fill="none" xmlns="http://www.w3.org/2000/svg">
<g clip-path="url(#clip0_22_25)">
<path d="M13.1104 10.8758C12.6255 10.6857 12.1067 10.5978 11.5862 10.6175C11.1168 10.6076 10.6471 10.6163 10.1783 10.6433V14.9833L10.6821 15.0091H11.3667C11.8704 15.0091 12.3742 14.9316 12.8521 14.7766C13.2654 14.6604 13.6271 14.415 13.9113 14.092C14.1825 13.7691 14.3117 13.33 14.3117 12.7616C14.3408 12.3599 14.2397 11.9595 14.0233 11.6198C13.8069 11.2801 13.4868 11.0192 13.1104 10.8758ZM25.5104 0.387451H5.48958C4.03366 0.387451 2.63736 0.965816 1.60786 1.99531C0.578365 3.02481 0 4.42111 0 5.87703L0 25.1229C0 28.1583 2.45417 30.6125 5.48958 30.6125H25.5104C28.5458 30.6125 31 28.1583 31 25.1229V5.87703C31 2.84162 28.5458 0.387451 25.5104 0.387451ZM16.3525 15.4354C15.8358 16.1587 15.1125 16.7012 14.2729 17.0112C13.3946 17.3341 12.4258 17.4504 11.3667 17.4504L10.7208 17.4375L10.1654 17.4245V21.5708C10.1691 21.5921 10.1682 21.614 10.1629 21.635C10.1576 21.6561 10.1479 21.6757 10.1345 21.6927C10.1211 21.7098 10.1043 21.7238 10.0852 21.734C10.066 21.7441 10.045 21.7501 10.0233 21.7516H7.5175C7.41417 21.7516 7.3625 21.7 7.3625 21.5837V8.29245C7.3625 8.20203 7.40125 8.15037 7.49167 8.15037L8.215 8.13745L9.19667 8.11162L10.3204 8.08578L11.4958 8.07287C12.555 8.07287 13.4333 8.20203 14.1567 8.47328C14.8025 8.69287 15.3967 9.05453 15.8875 9.53245C16.3008 9.94578 16.6237 10.4495 16.8304 11.005C17.0242 11.5475 17.1275 12.1029 17.1275 12.6841C17.1275 13.795 16.8692 14.712 16.3525 15.4354ZM25.1617 11.3666V13.8854C25.1617 13.9887 25.0971 14.0275 24.955 14.0275C24.1028 13.9965 23.2547 14.1599 22.475 14.5054C22.2296 14.6216 21.9971 14.7766 21.8162 14.9833V21.5708C21.8162 21.7 21.7646 21.7516 21.6483 21.7516H19.1037C19.08 21.7553 19.0557 21.7541 19.0324 21.7483C19.009 21.7424 18.9871 21.732 18.9679 21.7175C18.9486 21.7031 18.9324 21.685 18.9203 21.6642C18.9081 21.6434 18.9002 21.6205 18.8971 21.5966V14.3891L18.8842 13.4204L18.8583 12.4129C18.8583 12.1158 18.8325 11.8316 18.8067 11.5345C18.8023 11.504 18.8089 11.4728 18.8255 11.4467C18.8421 11.4207 18.8675 11.4014 18.8971 11.3925H21.1962C21.3254 11.3925 21.4288 11.4829 21.4546 11.5991C21.5713 11.9842 21.628 12.3851 21.6225 12.7875C22.01 12.3354 22.4879 11.9608 23.0175 11.6766C23.6179 11.3431 24.294 11.1696 24.9808 11.1729C25.0712 11.16 25.1487 11.2245 25.1617 11.315V11.3666Z" fill="url(#paint0_linear_22_25)"/>
</g>
<defs>
<linearGradient id="paint0_linear_22_25" x1="15.5" y1="0.387451" x2="15.5" y2="30.6125" gradientUnits="userSpaceOnUse">
<stop stop-color="#666666"/>
<stop offset="1" stop-color="white"/>
</linearGradient>
<clipPath id="clip0_22_25">
<rect width="31" height="31" fill="white"/>
</clipPath>
</defs>
</svg>
