<svg width="48" height="48" viewBox="0 0 48 48" fill="none" xmlns="http://www.w3.org/2000/svg">
<g clip-path="url(#clip0_17_21)">
<path d="M23.9999 47.898C23.8459 47.898 23.6939 47.862 23.5519 47.792L22.7019 47.368C18.3139 45.172 3.9939 36.986 3.9939 23.768L3.9979 13.076C3.9979 9.19002 6.4759 5.75602 10.1659 4.53402L23.6859 0.0500234C23.8899 -0.0179766 24.1119 -0.0179766 24.3139 0.0500234L37.8319 4.53202C41.5219 5.75602 43.9999 9.19002 43.9999 13.074L43.9939 23.766C43.9939 38.762 29.6499 45.7 25.2539 47.47L24.3719 47.824C24.2519 47.872 24.1239 47.896 23.9979 47.896L23.9999 47.898ZM23.9999 2.05402L10.7959 6.43202C7.9259 7.38402 5.9999 10.054 5.9999 13.076L5.9959 23.768C5.9959 35.838 19.4679 43.516 23.5979 45.58L24.0459 45.804L24.5099 45.618C28.6119 43.968 41.9959 37.514 41.9959 23.77L42.0019 13.078C42.0019 10.056 40.0739 7.38602 37.2059 6.43402L23.9999 2.05402Z" fill="white"/>
<path d="M21.9621 30C20.6801 30 19.3981 29.512 18.4221 28.536L12.3101 22.726C11.9101 22.346 11.8941 21.712 12.2741 21.312C12.6541 20.914 13.2861 20.896 13.6881 21.276L19.8181 27.104C21.0061 28.29 22.9081 28.292 24.0781 27.122L35.3021 16.282C35.7021 15.9 36.3361 15.912 36.7161 16.308C37.1001 16.704 37.0901 17.338 36.6921 17.722L25.4781 28.55C24.5121 29.516 23.2361 30.002 21.9601 30.002L21.9621 30Z" fill="white"/>
</g>
<defs>
<clipPath id="clip0_17_21">
<rect width="48" height="48" fill="white"/>
</clipPath>
</defs>
</svg>
