<svg width="31" height="32" viewBox="0 0 31 32" fill="none" xmlns="http://www.w3.org/2000/svg">
<path d="M18.3804 16.0053C18.3804 16.7958 18.0763 17.5539 17.5349 18.1129C16.9936 18.672 16.2593 18.9863 15.4935 18.9866C14.7276 18.9866 13.9929 18.6725 13.4513 18.1134C12.9097 17.5543 12.6054 16.796 12.6054 16.0053C12.6054 15.2148 12.9095 14.4567 13.4508 13.8976C13.9922 13.3386 14.7265 13.0243 15.4923 13.024C16.2582 13.024 16.9929 13.3381 17.5345 13.8972C18.0761 14.4563 18.3804 15.2146 18.3804 16.0053ZM21.8007 1.75195C20.0622 1.75195 17.7875 3.03195 15.4871 5.24795C13.1879 3.04395 10.912 1.77862 9.17471 1.77862C8.64512 1.77862 8.16333 1.90262 7.74613 2.14929C5.97008 3.20662 5.57225 6.50129 6.48933 10.636C2.5575 11.8893 0 13.8933 0 16.0053C0 18.1253 2.57042 20.1346 6.51388 21.3786C5.60454 25.5293 6.01012 28.8293 7.79004 29.8853C8.20337 30.1346 8.68129 30.252 9.21346 30.252C10.9507 30.252 13.2267 28.972 15.5271 26.7533C17.8263 28.9586 20.1022 30.224 21.8395 30.224C22.3691 30.224 22.8509 30.104 23.2681 29.8573C25.0428 28.8013 25.442 25.5066 24.5249 21.3706C28.4425 20.128 31 18.12 31 16.0053C31 13.8853 28.4296 11.876 24.4861 10.6293C25.3955 6.48262 24.9899 3.17995 23.21 2.12262C22.7992 1.87729 22.3226 1.75329 21.8007 1.75195ZM21.7943 3.20529V3.21329C22.0849 3.21329 22.3187 3.27195 22.515 3.38262C23.3753 3.89195 23.7486 5.82929 23.458 8.32129C23.3882 8.93462 23.2745 9.58129 23.135 10.2413C21.895 9.92662 20.544 9.68529 19.1218 9.52929C18.2693 8.32262 17.3845 7.22662 16.4933 6.26662C18.5496 4.29329 20.4807 3.21062 21.7956 3.20662L21.7943 3.20529ZM9.17471 3.23195C10.4819 3.23195 12.422 4.30929 14.4835 6.27195C13.5974 7.23195 12.7139 8.32129 11.8743 9.52795C10.4444 9.68395 9.09204 9.92529 7.85333 10.2453C7.70867 9.59195 7.60146 8.95995 7.52525 8.35195C7.22817 5.86129 7.595 3.92529 8.4475 3.40929C8.69292 3.28929 8.96417 3.23862 9.17471 3.23195ZM15.4806 7.29862C16.0683 7.92262 16.656 8.62129 17.2373 9.38395C16.669 9.35729 16.0877 9.33862 15.5 9.33862C14.9058 9.33862 14.3181 9.35195 13.7433 9.38395C14.3117 8.62129 14.8994 7.92395 15.4806 7.29862ZM15.5 10.8C16.4558 10.8 17.4078 10.8453 18.3442 10.924C18.8687 11.7 19.3802 12.528 19.8723 13.404C20.3528 14.2573 20.7894 15.124 21.1872 15.9986C20.7894 16.872 20.3528 17.7453 19.8787 18.5986C19.3879 19.4786 18.8803 20.316 18.3546 21.092C17.4142 21.176 16.461 21.2226 15.5 21.2226C14.5442 21.2226 13.5922 21.176 12.6558 21.0986C12.1313 20.3226 11.6198 19.4933 11.1277 18.6186C10.6472 17.7653 10.2106 16.8986 9.81279 16.024C10.2042 15.148 10.6472 14.2733 11.1212 13.4186C11.6121 12.5386 12.1197 11.704 12.6454 10.928C13.5857 10.8426 14.539 10.7973 15.5 10.7973V10.8ZM10.8048 11.1386C10.4948 11.6413 10.1848 12.156 9.89546 12.6853C9.60483 13.2053 9.33358 13.728 9.07525 14.2506C8.73296 13.376 8.44233 12.504 8.20208 11.6546C9.02875 11.4546 9.90062 11.276 10.8048 11.1386ZM20.1823 11.1386C21.08 11.276 21.9454 11.4453 22.7734 11.6546C22.5409 12.4973 22.2503 13.364 21.9209 14.232C21.6625 13.712 21.3913 13.188 21.0942 12.6666C20.8036 12.144 20.4936 11.6346 20.1836 11.1386H20.1823ZM24.1387 12.0386C24.7638 12.2386 25.358 12.4613 25.9147 12.7026C28.1519 13.6893 29.5985 14.98 29.5985 16.004C29.5921 17.028 28.1454 18.324 25.9082 19.304C25.3657 19.544 24.7716 19.76 24.158 19.9613C23.7964 18.684 23.3236 17.3533 22.7372 15.988C23.3185 14.632 23.7835 13.308 24.1387 12.036V12.0386ZM6.83679 12.044C7.19588 13.324 7.66992 14.6533 8.25762 16.0173C7.67637 17.3733 7.20879 18.6973 6.85487 19.9693C6.22971 19.7693 5.63554 19.5453 5.08529 19.3026C2.84812 18.32 1.40146 17.028 1.40146 16.004C1.40146 14.98 2.84812 13.6813 5.08529 12.7026C5.62779 12.4626 6.22196 12.2466 6.83679 12.044ZM21.9209 17.7506C22.2632 18.6266 22.5538 19.5 22.794 20.348C21.9674 20.5573 21.0942 20.7346 20.19 20.868C20.5 20.368 20.81 19.852 21.1007 19.324C21.3913 18.804 21.6613 18.2733 21.9209 17.7506ZM9.07525 17.7773C9.33358 18.3 9.60483 18.8213 9.90192 19.344C10.199 19.864 10.5025 20.3733 10.8125 20.868C9.91483 20.732 9.04942 20.5613 8.22146 20.3533C8.45396 19.5133 8.74587 18.644 9.07396 17.776L9.07525 17.7773ZM23.1467 21.76C23.2913 22.4173 23.405 23.0506 23.4747 23.6573C23.7718 26.148 23.405 28.084 22.5525 28.6013C22.3626 28.7213 22.1159 28.772 21.8253 28.772C20.5181 28.772 18.578 27.696 16.5165 25.732C17.4026 24.772 18.2861 23.684 19.1257 22.4786C20.5556 22.3213 21.908 22.08 23.1467 21.76ZM7.86625 21.7733C9.10625 22.0853 10.4573 22.3266 11.8795 22.4826C12.732 23.6893 13.6168 24.7853 14.508 25.744C12.4478 27.7213 10.5142 28.804 9.19925 28.804C8.91508 28.7973 8.67483 28.7373 8.48496 28.628C7.62471 28.1213 7.25142 26.1826 7.54204 23.6906C7.61179 23.0773 7.72675 22.432 7.86625 21.7733ZM13.7562 22.6266C14.3246 22.6533 14.9058 22.672 15.4935 22.672C16.0877 22.672 16.6754 22.6586 17.2502 22.6266C16.6819 23.3893 16.0942 24.0866 15.5129 24.7133C14.9252 24.0866 14.3375 23.3893 13.7562 22.6266Z" fill="url(#paint0_linear_22_17)"/>
<defs>
<linearGradient id="paint0_linear_22_17" x1="15.5" y1="1.75195" x2="15.5" y2="30.252" gradientUnits="userSpaceOnUse">
<stop stop-color="#666666"/>
<stop offset="1" stop-color="white"/>
</linearGradient>
</defs>
</svg>
