<svg width="40" height="40" viewBox="0 0 40 40" fill="none" xmlns="http://www.w3.org/2000/svg">
<g clip-path="url(#clip0_17_32)">
<path d="M40 39.1667C40 39.6267 39.6267 40 39.1667 40H4.16667C1.87 40 0 38.13 0 35.8333V0.833333C0 0.373333 0.373333 0 0.833333 0C1.29333 0 1.66667 0.373333 1.66667 0.833333V35.8333C1.66667 37.2117 2.78833 38.3333 4.16667 38.3333H39.1667C39.6267 38.3333 40 38.7067 40 39.1667ZM35.8333 8.33333H29.1667C28.7067 8.33333 28.3333 8.70667 28.3333 9.16667C28.3333 9.62667 28.7067 10 29.1667 10H35.8333C36.2183 10 36.5833 10.0883 36.91 10.2433L27.2917 19.2667C26.3183 20.2417 24.7317 20.2433 23.7033 19.2183L22.1133 17.8867C20.5417 16.3133 17.785 16.3217 16.23 17.8783L6.92 26.9017C6.59 27.2217 6.58167 27.75 6.90167 28.08C7.065 28.2483 7.28333 28.3333 7.5 28.3333C7.70833 28.3333 7.91833 28.255 8.08 28.0983L17.3983 19.0667C18.3417 18.1233 19.9367 18.0733 20.9867 19.115L22.5767 20.4467C24.2 22.0717 26.845 22.0717 28.45 20.465L38.0683 11.4417L38.0867 11.4233C38.2433 11.75 38.3317 12.115 38.3317 12.5017V19.1683C38.3317 19.6283 38.705 20.0017 39.165 20.0017C39.625 20.0017 39.9983 19.6283 39.9983 19.1683V12.5C39.9983 10.2033 38.13 8.33333 35.8333 8.33333Z" fill="white"/>
</g>
<defs>
<clipPath id="clip0_17_32">
<rect width="40" height="40" fill="white"/>
</clipPath>
</defs>
</svg>
