<svg width="45" height="45" viewBox="0 0 45 45" fill="none" xmlns="http://www.w3.org/2000/svg">
<g clip-path="url(#clip0_17_7)">
<path d="M44.8652 34.7006L40.037 7.25813C39.2964 3.0525 35.6627 0 31.3933 0H13.5827C9.30767 0 5.67205 3.05437 4.93517 7.26562L0.133296 34.71C-0.314829 37.2694 0.388296 39.8794 2.0608 41.8687C3.7333 43.8581 6.18205 45 8.7808 45H36.2195C38.8202 45 41.2689 43.8581 42.9414 41.865C44.6158 39.8737 45.317 37.2619 44.8652 34.7006ZM41.507 40.6613C40.1927 42.2269 38.2652 43.125 36.2214 43.125H8.7808C6.73705 43.125 4.80955 42.2269 3.49517 40.6631C2.1808 39.0994 1.62767 37.0463 1.98017 35.0325L6.78205 7.58812C7.36142 4.27687 10.2208 1.875 13.5808 1.875H31.3914C34.7495 1.875 37.607 4.275 38.1902 7.58063L43.0183 35.025C43.3708 37.0388 42.8214 39.0919 41.5052 40.6594L41.507 40.6613ZM23.4377 8.4375V14.0625C23.4377 14.58 23.0177 15 22.5002 15C21.9827 15 21.5627 14.58 21.5627 14.0625V8.4375C21.5627 7.92 21.9827 7.5 22.5002 7.5C23.0177 7.5 23.4377 7.92 23.4377 8.4375ZM23.4377 19.6875V25.3125C23.4377 25.83 23.0177 26.25 22.5002 26.25C21.9827 26.25 21.5627 25.83 21.5627 25.3125V19.6875C21.5627 19.17 21.9827 18.75 22.5002 18.75C23.0177 18.75 23.4377 19.17 23.4377 19.6875ZM23.4377 30.9375V36.5625C23.4377 37.08 23.0177 37.5 22.5002 37.5C21.9827 37.5 21.5627 37.08 21.5627 36.5625V30.9375C21.5627 30.42 21.9827 30 22.5002 30C23.0177 30 23.4377 30.42 23.4377 30.9375Z" fill="#F8F8F8"/>
</g>
<defs>
<clipPath id="clip0_17_7">
<rect width="45" height="45" fill="white"/>
</clipPath>
</defs>
</svg>
