<svg width="1437" height="1244" viewBox="0 0 1437 1244" fill="none" xmlns="http://www.w3.org/2000/svg">
<mask id="mask0_54_389" style="mask-type:luminance" maskUnits="userSpaceOnUse" x="130" y="33" width="1177" height="1177">
<circle cx="718.5" cy="621.5" r="588.5" fill="#D9D9D9"/>
</mask>
<g mask="url(#mask0_54_389)">
<path d="M342 95.5V1210.5" stroke="white" stroke-width="4" stroke-linecap="round"/>
<path d="M182.495 1050L1297.5 1050.01" stroke="white" stroke-width="4" stroke-linecap="round"/>
<path d="M1134 93.5V1208.5" stroke="white" stroke-width="4" stroke-linecap="round"/>
<path d="M180.503 258L1295.5 258.011" stroke="white" stroke-width="4" stroke-linecap="round"/>
<path d="M738 92.5V1207.5" stroke="white" stroke-width="4" stroke-linecap="round"/>
<path d="M179.499 654L1294.5 654.01" stroke="white" stroke-width="4" stroke-linecap="round"/>
<path d="M441 95V1210" stroke="white" stroke-width="4" stroke-linecap="round"/>
<path d="M181.996 951L1297 951.011" stroke="white" stroke-width="4" stroke-linecap="round"/>
<path d="M1233 93V1208" stroke="white" stroke-width="4" stroke-linecap="round"/>
<path d="M180.004 159L1295 159.011" stroke="white" stroke-width="4" stroke-linecap="round"/>
<path d="M837 92V1207" stroke="white" stroke-width="4" stroke-linecap="round"/>
<path d="M179 555L1294 555.01" stroke="white" stroke-width="4" stroke-linecap="round"/>
<path d="M540 96V1211" stroke="white" stroke-width="4" stroke-linecap="round"/>
<path d="M182.997 852L1298 852.011" stroke="white" stroke-width="4" stroke-linecap="round"/>
<path d="M936 93V1208" stroke="white" stroke-width="4" stroke-linecap="round"/>
<path d="M180.001 456L1295 456.01" stroke="white" stroke-width="4" stroke-linecap="round"/>
<path d="M243 96V1211" stroke="white" stroke-width="4" stroke-linecap="round"/>
<path d="M182.995 1149L1297.99 1149.01" stroke="white" stroke-width="4" stroke-linecap="round"/>
<path d="M1035 94V1209" stroke="white" stroke-width="4" stroke-linecap="round"/>
<path d="M181.002 357L1296 357.011" stroke="white" stroke-width="4" stroke-linecap="round"/>
<path d="M639 93V1208" stroke="white" stroke-width="4" stroke-linecap="round"/>
<path d="M179.998 753L1295 753.01" stroke="white" stroke-width="4" stroke-linecap="round"/>
<circle cx="683" cy="640" r="1098" fill="url(#paint0_radial_54_389)"/>
</g>
<defs>
<radialGradient id="paint0_radial_54_389" cx="0" cy="0" r="1" gradientUnits="userSpaceOnUse" gradientTransform="translate(732 600.5) rotate(90.4152) scale(483.013)">
<stop stop-color="#090909" stop-opacity="0.84"/>
<stop offset="1" stop-color="#090909"/>
</radialGradient>
</defs>
</svg>
