<svg width="31" height="31" viewBox="0 0 31 31" fill="none" xmlns="http://www.w3.org/2000/svg">
<g clip-path="url(#clip0_22_23)">
<path d="M1.45312 0C0.648417 0 0 0.648417 0 1.45312V29.5469C0 30.3516 0.648417 31 1.45312 31H29.5469C30.3516 31 31 30.3516 31 29.5469V1.45312C31 0.648417 30.3516 0 29.5469 0H1.45312ZM23.8803 12.5937C24.6708 12.5937 25.3709 12.6415 25.9819 12.7371C26.5581 12.8235 27.1236 12.9707 27.6688 13.1763V16.3512C27.4071 16.1702 27.129 16.0141 26.8382 15.8849C26.5384 15.75 26.2288 15.6377 25.9121 15.5491C25.3123 15.3819 24.6929 15.2951 24.0702 15.2907C23.6827 15.2907 23.3301 15.3269 23.0123 15.4018C22.7291 15.4624 22.4575 15.5679 22.2076 15.7144C21.988 15.8487 21.8201 16.0102 21.7 16.1975C21.5792 16.3863 21.5163 16.6063 21.5192 16.8304C21.5192 17.0836 21.5876 17.3122 21.7207 17.5137C21.855 17.7152 22.0462 17.9064 22.2929 18.0872C22.5396 18.268 22.8392 18.4437 23.1919 18.6168C23.5445 18.7912 23.9436 18.9707 24.388 19.1541C24.995 19.4086 25.5401 19.6798 26.0232 19.9653C26.5063 20.252 26.9209 20.5762 27.2671 20.9379C27.6132 21.2983 27.8768 21.7103 28.0602 22.174C28.2436 22.6377 28.3366 23.1764 28.3366 23.7925C28.3366 24.6411 28.1751 25.3554 27.8548 25.9315C27.5418 26.4997 27.0927 26.9812 26.5476 27.333C25.9602 27.7055 25.309 27.9664 24.6269 28.1028C23.8958 28.2578 23.1247 28.3353 22.3148 28.3353C21.5177 28.3388 20.7221 28.2679 19.9382 28.1235C19.2599 28.0062 18.6022 27.7917 17.9852 27.4867V24.0896C19.1525 25.083 20.6334 25.632 22.1663 25.6396C22.5964 25.6396 22.9723 25.6008 23.2926 25.5233C23.6143 25.4458 23.8816 25.3373 24.0973 25.2004C24.3117 25.0609 24.4719 24.8982 24.5791 24.7096C24.6976 24.49 24.7515 24.2414 24.7346 23.9925C24.7177 23.7435 24.6306 23.5045 24.4835 23.303C24.2916 23.049 24.0569 22.8305 23.7899 22.6571C23.4588 22.4376 23.1102 22.2458 22.7475 22.0836C22.3177 21.8873 21.8841 21.6996 21.4468 21.5205C20.2611 21.0257 19.3776 20.42 18.795 19.7057C18.2138 18.9914 17.9219 18.1272 17.9219 17.1159C17.9219 16.3228 18.0807 15.6421 18.3985 15.0725C18.7162 14.5028 19.1477 14.034 19.6953 13.6658C20.2746 13.2837 20.9177 13.0085 21.5941 12.8534C22.3432 12.6767 23.1107 12.5896 23.8803 12.5937ZM4.35937 12.8366H16.7116V15.6343H12.2786V28.0937H8.76912V15.6343H4.35937V12.8366Z" fill="url(#paint0_linear_22_23)"/>
</g>
<defs>
<linearGradient id="paint0_linear_22_23" x1="15.5" y1="0" x2="15.5" y2="31" gradientUnits="userSpaceOnUse">
<stop stop-color="#666666"/>
<stop offset="1" stop-color="white"/>
</linearGradient>
<clipPath id="clip0_22_23">
<rect width="31" height="31" rx="4" fill="white"/>
</clipPath>
</defs>
</svg>
