<svg width="40" height="40" viewBox="0 0 40 40" fill="none" xmlns="http://www.w3.org/2000/svg">
<g clip-path="url(#clip0_94_9)">
<path d="M1.52541 19.1995L13.6651 5.93293C13.8294 5.75345 14.055 5.65218 14.2907 5.65218H14.378H22.7835C23.2652 5.65218 23.6557 6.06692 23.6557 6.57854V13.1655C23.6557 13.4704 23.5144 13.7558 23.2779 13.9287L15.4669 19.6361C14.9513 20.013 14.9661 20.8269 15.4951 21.1822L23.2497 26.391C23.5025 26.5608 23.6557 26.8563 23.6557 27.1739V32.7693C23.6557 33.2809 23.2652 33.6957 22.7835 33.6957H13.8766C13.6396 33.6957 13.4128 33.5933 13.2484 33.4121L1.52282 20.4878C1.19631 20.128 1.19745 19.5579 1.52541 19.1995Z" stroke="#D6D6D6" stroke-width="0.6"/>
<path d="M2.80916 19.1843L13.8451 7.23684C14.3947 6.64185 15.3443 7.05686 15.3443 7.89205V32.1079C15.3443 32.9491 14.383 33.3613 13.837 32.7543L2.80108 20.4858C2.47303 20.1212 2.47661 19.5443 2.80916 19.1843Z" fill="#D9D9D9"/>
<path d="M25.5737 5.65218L38.1078 19.2819C38.4438 19.6472 38.445 20.2269 38.1106 20.5938L25.5737 34.3478" stroke="#FF410D" stroke-width="0.6" stroke-linecap="round"/>
</g>
<defs>
<clipPath id="clip0_94_9">
<rect width="39" height="30" fill="white" transform="translate(0 5)"/>
</clipPath>
</defs>
</svg>
