<svg width="31" height="31" viewBox="0 0 31 31" fill="none" xmlns="http://www.w3.org/2000/svg">
<rect width="30.033" height="30.0338" rx="6" fill="#8F1F00"/>
<path d="M15.111 22.2765C15.072 22.245 15.0398 22.224 14.9985 22.1895C14.49 21.651 13.6845 20.7067 12.9825 19.5H14.1608L13.6478 18H12.243C11.8733 17.0745 11.6243 16.0597 11.6243 15C11.6243 13.9403 11.8748 12.9263 12.246 12H17.7465C17.967 12.552 18.1515 13.131 18.2587 13.7378L19.836 14.2778C19.7677 13.4813 19.5893 12.7193 19.3463 12.0008H21.8685C22.2367 12.84 22.4497 13.7595 22.485 14.7248C22.4887 14.817 22.491 15.1238 22.4895 15.186L23.964 15.6908C23.9812 15.462 23.9992 15.234 23.9992 15.0015C24 10.0372 19.962 6 15 6C10.038 6 6 10.0372 6 15C6 19.9628 10.0372 24 15 24C15.2325 24 15.462 23.988 15.6908 23.9707L15.111 22.2765ZM12.9825 10.5C13.6823 9.29775 14.4923 8.349 15 7.8105C15.507 8.3475 16.3125 9.29925 17.0108 10.5H12.9825ZM20.985 10.5H18.7207C18.1785 9.41175 17.5275 8.48325 16.9508 7.76625C18.5835 8.20725 19.9935 9.1845 20.985 10.5ZM13.0403 7.7685C12.4643 8.48325 11.817 9.417 11.2755 10.5H9.01275C10.0027 9.18675 11.4113 8.21025 13.0403 7.7685ZM8.13 12H10.65C10.3335 12.9338 10.125 13.9403 10.125 15C10.125 16.0597 10.3335 17.0662 10.65 18H8.13C7.7265 17.0805 7.49925 16.0665 7.49925 15C7.49925 13.9335 7.7265 12.9195 8.13 12ZM9.0135 19.5H11.2762C11.8222 20.5928 12.4755 21.5167 13.0545 22.2352C11.4188 21.795 10.0065 20.817 9.0135 19.5ZM24.033 17.2988L19.452 19.4542L17.2965 24.0338L13.794 13.7955L24.033 17.2988Z" fill="white"/>
</svg>
